<svg width="60" height="60" viewBox="0 0 60 60" fill="none" xmlns="http://www.w3.org/2000/svg">
    <path d="M27 17H17V27.5H27V17ZM19 19.1H25V25.4H19V19.1ZM23 35.9H21V38H23V35.9Z" fill="#ffffff" />
    <path d="M27 31.5H17V42H27V31.5ZM19 33.6H25V39.9H19V33.6ZM35 21H37V23.1H35V21Z" fill="#ffffff" />
    <path
        d="M31 17H41V27.4167H31V17ZM33 19.0833V25.3333H39V19.0833H33ZM29 31.5V35H31V37H29V39H33V35L35 37V39H37V37.8333L41 37V35.5L35 37V31.5H29ZM33 35H31V33H33V35ZM41 38L39 38.5V39.9167H35V42H41V38ZM33 42V39.9167H29V42H33Z"
        fill="#ffffff" />
    <path d="M36.5 35L41 34V31.5H36.5V35Z" fill="#ffffff" />
    <path
        d="M8 13.5833V20.4583C8 21.7188 9.09075 22.75 10.4239 22.75C11.757 22.75 12.8478 21.7188 12.8478 20.4583V15.875C12.8478 14.6146 13.9385 13.5833 15.2716 13.5833H20.1194C21.4525 13.5833 22.5433 12.5521 22.5433 11.2917C22.5433 10.0313 21.4525 9 20.1194 9H12.8478C10.1815 9 8 11.0625 8 13.5833ZM10.4239 36.5C9.09075 36.5 8 37.5313 8 38.7917V45.6667C8 48.1875 10.1815 50.25 12.8478 50.25H20.1194C21.4525 50.25 22.5433 49.2188 22.5433 47.9583C22.5433 46.6979 21.4525 45.6667 20.1194 45.6667H15.2716C13.9385 45.6667 12.8478 44.6354 12.8478 43.375V38.7917C12.8478 37.5313 11.757 36.5 10.4239 36.5ZM46.7821 43.375C46.7821 44.6354 45.6913 45.6667 44.3582 45.6667H39.5104C38.1773 45.6667 37.0865 46.6979 37.0865 47.9583C37.0865 49.2188 38.1773 50.25 39.5104 50.25H46.7821C49.4483 50.25 51.6298 48.1875 51.6298 45.6667V38.7917C51.6298 37.5313 50.5391 36.5 49.2059 36.5C47.8728 36.5 46.7821 37.5313 46.7821 38.7917V43.375ZM46.7821 9H39.5104C38.1773 9 37.0865 10.0313 37.0865 11.2917C37.0865 12.5521 38.1773 13.5833 39.5104 13.5833H44.3582C45.6913 13.5833 46.7821 14.6146 46.7821 15.875V20.4583C46.7821 21.7188 47.8728 22.75 49.2059 22.75C50.5391 22.75 51.6298 21.7188 51.6298 20.4583V13.5833C51.6298 11.0625 49.4483 9 46.7821 9Z"
        fill="#ffffff" />
</svg>
