<?xml version="1.0" encoding="UTF-8"?>
<!-- Generator: visioncortex VTracer 0.6.3 -->
<svg version="1.1" xmlns="http://www.w3.org/2000/svg" width="588" height="1280">
    <path d="M0 0 C0.92 -0 1.85 -0.01 2.8 -0.01 C5.9 -0.03 9.01 -0.03 12.12 -0.03 C14.37 -0.03 16.61 -0.04 18.86 -0.05 C25.04 -0.07 31.22 -0.08 37.4 -0.08 C43.38 -0.09 49.35 -0.1 55.33 -0.12 C71.35 -0.16 87.36 -0.18 103.38 -0.2 C110.96 -0.21 118.53 -0.22 126.11 -0.23 C152.05 -0.27 177.99 -0.3 203.92 -0.31 C205.55 -0.31 207.18 -0.31 208.81 -0.31 C209.61 -0.31 210.42 -0.31 211.25 -0.31 C215.34 -0.32 219.44 -0.32 223.53 -0.32 C224.34 -0.32 225.15 -0.32 225.99 -0.32 C252.31 -0.34 278.63 -0.39 304.96 -0.45 C332.79 -0.52 360.62 -0.56 388.45 -0.57 C391.5 -0.57 394.56 -0.57 397.62 -0.57 C398.37 -0.57 399.12 -0.57 399.9 -0.57 C412 -0.57 424.11 -0.61 436.21 -0.65 C448.38 -0.69 460.55 -0.7 472.72 -0.68 C479.31 -0.67 485.9 -0.67 492.49 -0.71 C498.53 -0.75 504.56 -0.75 510.6 -0.71 C512.78 -0.71 514.96 -0.72 517.14 -0.74 C536.85 -0.94 536.85 -0.94 544.93 6.17 C547.71 9.12 550.34 12.13 552.9 15.27 C553.89 15.6 554.88 15.93 555.9 16.27 C555.96 54.18 556.01 92.09 556.06 130 C556.06 130.74 556.06 131.48 556.07 132.25 C556.17 211.73 556.26 291.22 556.33 370.7 C556.33 372.47 556.33 374.23 556.33 376 C556.36 413.05 556.39 450.11 556.41 487.17 C556.43 505.78 556.44 524.4 556.45 543.01 C556.45 545.82 556.46 548.63 556.46 551.44 C556.49 594.68 556.53 637.92 556.59 681.16 C556.59 682.09 556.59 683.02 556.59 683.98 C556.62 698.97 556.64 713.96 556.66 728.96 C556.73 772.13 556.79 815.31 556.82 858.49 C556.82 859.82 556.82 859.82 556.82 861.18 C556.83 880.67 556.84 900.16 556.84 919.65 C556.85 927.49 556.85 935.33 556.85 943.17 C556.85 944.03 556.85 944.89 556.85 945.77 C556.86 973.43 556.91 1001.09 556.97 1028.74 C557.03 1056.6 557.06 1084.46 557.04 1112.32 C557.04 1116.17 557.04 1120.02 557.04 1123.87 C557.03 1124.62 557.03 1125.38 557.03 1126.15 C557.03 1138.1 557.06 1150.05 557.1 1162.01 C557.15 1173.76 557.15 1185.51 557.12 1197.26 C557.11 1203.54 557.11 1209.83 557.15 1216.11 C557.19 1221.83 557.19 1227.55 557.15 1233.27 C557.14 1235.32 557.15 1237.38 557.18 1239.44 C557.41 1257.1 557.41 1257.1 551.01 1264.38 C549.36 1266.06 547.66 1267.7 545.9 1269.27 C545.34 1269.84 544.78 1270.4 544.2 1270.99 C535.43 1279.61 521.24 1278.23 509.9 1278.27 C508.93 1278.26 507.95 1278.25 506.94 1278.24 C505.5 1278.23 505.5 1278.23 504.03 1278.22 C502.73 1278.2 502.73 1278.2 501.41 1278.18 C498.84 1278.2 498.84 1278.2 496.15 1278.83 C495.41 1278.98 494.67 1279.12 493.9 1279.27 C493.57 1278.94 493.24 1278.61 492.9 1278.27 C490.49 1278.17 488.1 1278.13 485.68 1278.14 C484.91 1278.14 484.15 1278.14 483.35 1278.14 C480.75 1278.13 478.14 1278.14 475.53 1278.14 C473.65 1278.14 471.78 1278.14 469.9 1278.14 C464.72 1278.13 459.54 1278.13 454.36 1278.14 C448.79 1278.14 443.21 1278.14 437.64 1278.13 C426.7 1278.13 415.77 1278.13 404.83 1278.13 C395.95 1278.14 387.07 1278.14 378.18 1278.13 C376.92 1278.13 375.66 1278.13 374.36 1278.13 C371.8 1278.13 369.23 1278.13 366.67 1278.13 C343.29 1278.13 319.92 1278.13 296.54 1278.14 C275.18 1278.14 253.83 1278.14 232.47 1278.14 C208.5 1278.13 184.53 1278.13 160.56 1278.13 C158 1278.13 155.45 1278.13 152.89 1278.13 C151.64 1278.13 150.38 1278.13 149.08 1278.14 C140.21 1278.14 131.33 1278.13 122.45 1278.13 C111.64 1278.13 100.83 1278.13 90.02 1278.14 C84.5 1278.14 78.98 1278.14 73.45 1278.14 C68.41 1278.13 63.36 1278.13 58.31 1278.14 C56.48 1278.14 54.64 1278.14 52.81 1278.14 C50.33 1278.13 47.86 1278.14 45.38 1278.14 C44.65 1278.14 43.93 1278.14 43.19 1278.14 C40.14 1278.15 37.82 1278.3 34.9 1279.27 C34.57 1278.94 34.24 1278.61 33.9 1278.27 C31.25 1278.17 28.62 1278.13 25.97 1278.14 C25.22 1278.14 24.48 1278.14 23.72 1278.13 C19.68 1278.05 19.68 1278.05 15.9 1279.27 C15.24 1278.94 14.58 1278.61 13.9 1278.27 C11.78 1278.21 9.65 1278.16 7.53 1278.13 C-2.51 1277.94 -10.67 1276.69 -18.1 1269.27 C-18.84 1268.59 -19.58 1267.91 -20.35 1267.21 C-27.17 1260.37 -32.39 1251.73 -32.5 1241.95 C-32.49 1241.16 -32.48 1240.38 -32.48 1239.56 C-32.49 1238.28 -32.49 1238.28 -32.49 1236.97 C-32.5 1234.09 -32.5 1231.21 -32.49 1228.32 C-32.49 1226.23 -32.5 1224.14 -32.51 1222.05 C-32.52 1216.27 -32.52 1210.5 -32.51 1204.72 C-32.51 1198.45 -32.52 1192.17 -32.54 1185.9 C-32.55 1174.9 -32.56 1163.89 -32.56 1152.89 C-32.56 1141.08 -32.57 1129.27 -32.58 1117.46 C-32.58 1116.72 -32.58 1115.97 -32.58 1115.2 C-32.59 1112.17 -32.59 1109.13 -32.6 1106.09 C-32.64 1072.7 -32.65 1039.31 -32.66 1005.92 C-32.66 1005.07 -32.66 1004.23 -32.66 1003.36 C-32.66 1001.65 -32.66 999.94 -32.66 998.23 C-32.67 979.47 -32.68 960.72 -32.69 941.96 C-32.7 934.24 -32.7 926.52 -32.7 918.8 C-32.7 917.95 -32.7 917.1 -32.71 916.22 C-32.73 867.33 -32.75 818.44 -32.76 769.55 C-32.76 767.72 -32.76 765.89 -32.76 764.06 C-32.76 756.71 -32.76 749.37 -32.76 742.03 C-32.76 737.43 -32.76 732.82 -32.76 728.22 C-32.76 726.37 -32.76 724.53 -32.76 722.68 C-32.77 664.37 -32.8 606.05 -32.86 547.74 C-32.91 504.25 -32.95 460.77 -32.96 417.28 C-32.96 416.41 -32.96 415.53 -32.96 414.63 C-32.97 395.42 -32.97 376.21 -32.97 356.99 C-32.97 350.12 -32.97 343.25 -32.97 336.37 C-32.97 334.66 -32.97 332.95 -32.97 331.24 C-32.97 303.98 -33 276.73 -33.04 249.47 C-33.07 222.02 -33.09 194.56 -33.06 167.11 C-33.06 163.32 -33.06 159.53 -33.06 155.73 C-33.06 154.99 -33.05 154.25 -33.05 153.48 C-33.05 141.7 -33.07 129.93 -33.1 118.15 C-33.12 106.58 -33.12 95 -33.1 83.42 C-33.08 77.23 -33.08 71.03 -33.11 64.84 C-33.14 59.21 -33.14 53.57 -33.1 47.94 C-33.09 45.91 -33.1 43.89 -33.12 41.86 C-33.25 29.54 -32.52 21.83 -24.1 12.27 C-23.06 10.91 -23.06 10.91 -22 9.52 C-19.85 6.97 -18.16 6.43 -15.1 5.27 C-14.77 4.28 -14.44 3.29 -14.1 2.27 C-9.66 -0.34 -4.99 -0.02 0 0 Z " fill="#302F31" transform="translate(32.09597969055176,-0.26844215393066406)"/>
    <path d="M0 0 C34.46 -0.18 68.93 -0.32 103.39 -0.41 C107.46 -0.42 111.54 -0.43 115.61 -0.44 C116.42 -0.44 117.23 -0.44 118.06 -0.45 C131.18 -0.48 144.29 -0.54 157.4 -0.62 C170.86 -0.69 184.33 -0.74 197.79 -0.75 C206.09 -0.76 214.39 -0.8 222.69 -0.86 C228.39 -0.91 234.09 -0.92 239.79 -0.91 C243.07 -0.9 246.36 -0.91 249.64 -0.95 C273.49 -1.22 273.49 -1.22 281.17 5.9 C281.78 6.59 282.38 7.29 283 8 C283.92 9.01 283.92 9.01 284.85 10.04 C286.26 11.67 287.64 13.33 289 15 C289.99 15.33 290.98 15.66 292 16 C292 175.06 292 334.12 292 498 C288.04 498.99 284.08 499.98 280 501 C276.5 502.04 276.5 502.04 273 503.09 C254.06 508.83 234.08 513.12 214.33 514.8 C211.46 515.05 208.58 515.32 205.7 515.59 C203.45 515.79 201.19 515.99 198.94 516.19 C197.88 516.28 196.82 516.38 195.73 516.48 C190.72 516.89 186.17 517.05 181.17 516.24 C178.37 515.93 175.63 516 172.81 516.05 C166.07 516.11 159.69 515.25 153.06 514.12 C150.91 513.77 148.75 513.42 146.6 513.07 C145.52 512.89 144.43 512.71 143.32 512.52 C139.96 511.99 136.61 511.56 133.24 511.13 C125.75 510.07 118.54 508.29 111.24 506.33 C109.07 505.75 106.9 505.19 104.72 504.63 C90.93 501.01 78.13 495.75 65.31 489.5 C64.32 489.02 63.33 488.54 62.32 488.05 C59.54 486.71 56.77 485.35 54 484 C52.74 483.39 51.47 482.78 50.21 482.17 C43.93 479.09 37.93 475.7 32 472 C31.17 471.5 30.35 471 29.5 470.49 C23.79 466.97 18.37 463.14 13 459.12 C12.37 458.66 11.74 458.19 11.1 457.7 C9.05 456.15 7.02 454.58 5 453 C4.18 452.36 3.36 451.72 2.51 451.06 C-4.59 445.41 -11.05 439.25 -17.44 432.82 C-19.12 431.13 -20.81 429.45 -22.5 427.77 C-29.11 421.17 -35.25 414.38 -41 407 C-41.56 406.29 -42.11 405.58 -42.69 404.85 C-49.39 396.24 -55.47 387.42 -61 378 C-61.83 376.62 -62.67 375.25 -63.5 373.87 C-68.58 365.44 -73.07 357.03 -77 348 C-77.85 346.17 -78.71 344.33 -79.56 342.5 C-86.4 327.37 -91.02 311.63 -95.06 295.56 C-95.24 294.87 -95.41 294.17 -95.59 293.46 C-99.61 277.35 -102.02 261.29 -102.79 244.7 C-102.83 242.03 -102.83 242.03 -104 240 C-104.08 238.19 -104.11 236.37 -104.1 234.55 C-104.09 233.48 -104.09 232.4 -104.09 231.29 C-104.08 230.17 -104.07 229.04 -104.06 227.88 C-104.06 226.74 -104.05 225.6 -104.05 224.43 C-104.04 221.62 -104.02 218.81 -104 216 C-104.66 215.67 -105.32 215.34 -106 215 C-105.34 215 -104.68 215 -104 215 C-102.85 209.84 -102.96 204.86 -103.06 199.61 C-103 197 -103 197 -102 195 C-101.67 192.82 -101.39 190.63 -101.12 188.44 C-97.61 161.35 -90.84 135.74 -80.1 110.61 C-79.13 108.31 -78.22 105.99 -77.35 103.64 C-72.54 90.71 -65.19 79.54 -57.45 68.19 C-55.52 65.34 -53.69 62.5 -52.03 59.48 C-49.96 55.79 -47.47 52.54 -44.81 49.25 C-44.38 48.71 -43.95 48.16 -43.51 47.6 C-42.56 46.42 -41.61 45.24 -40.66 44.06 C-39.45 42.56 -38.25 41.05 -37.06 39.53 C-31.55 32.62 -25.62 26.34 -19.34 20.14 C-17.73 18.55 -16.13 16.95 -14.53 15.35 C-6.65 7.5 -6.65 7.5 -3.22 4.86 C-0.75 3.12 -0.75 3.12 0 0 Z " fill="#333435" transform="translate(296,0)"/>
    <path d="M0 0 C1.42 0.14 2.83 0.28 4.25 0.43 C5.04 0.5 5.82 0.58 6.64 0.66 C10.3 1.18 13.62 2.38 17.06 3.69 C17.79 3.96 18.52 4.22 19.28 4.5 C20.79 5.06 22.3 5.62 23.8 6.18 C25.86 6.95 27.92 7.68 29.99 8.41 C49.86 15.5 68.83 25.19 86.22 37.12 C88.85 38.9 91.53 40.54 94.25 42.19 C102.02 47.09 108.97 53.11 116 59 C116.76 59.63 117.52 60.26 118.31 60.9 C124.72 66.32 130.53 72.44 136.42 78.41 C137.82 79.82 139.24 81.22 140.66 82.61 C143.01 85.02 145.14 87.5 147.25 90.12 C149.53 92.95 151.8 95.77 154.16 98.53 C160.69 106.22 166.18 114.51 171.67 122.97 C172.77 124.65 173.9 126.31 175.04 127.97 C179.24 134.19 182.26 140.73 185.16 147.63 C186.56 150.93 187.87 153.81 189.93 156.76 C193.08 161.7 194.88 167.07 196.88 172.56 C197.32 173.77 197.76 174.98 198.21 176.23 C205.49 196.46 210.12 216.87 214 238 C214.18 238.99 214.36 239.98 214.55 241 C216.1 249.57 217.25 257.82 216.97 266.56 C217.01 269.91 218.02 272.82 219 276 C219.42 280.05 219.22 283.3 218 287.22 C216.9 291.37 216.75 295.24 216.69 299.5 C215.86 322.75 210.8 345.83 204 368 C203.73 368.87 203.47 369.74 203.2 370.64 C196.51 392.14 186.45 412.66 175 432 C174.42 433 174.42 433 173.82 434.02 C162.46 453.41 148.02 470.31 132 486 C131.18 486.83 130.35 487.65 129.5 488.5 C128.68 489.33 127.85 490.15 127 491 C126.16 491.87 126.16 491.87 125.3 492.77 C119.9 498.32 114.09 503.21 108 508 C107.08 508.72 106.17 509.44 105.23 510.18 C98.04 515.71 90.54 520.64 82.89 525.5 C80.05 527.31 77.29 529.21 74.56 531.19 C69.53 534.61 63.87 536.84 58.29 539.2 C53.95 541.01 53.95 541.01 50 543.53 C46.76 545.91 43.02 547.03 39.25 548.38 C38.42 548.68 37.58 548.98 36.73 549.29 C28.89 552.1 20.97 554.61 13 557 C10.52 553.95 8.14 550.88 5.94 547.62 C5.45 546.92 4.97 546.21 4.46 545.48 C0.64 539.01 -0.44 534.19 -0.37 526.77 C-0.37 525.85 -0.38 524.94 -0.38 524 C-0.39 520.94 -0.37 517.87 -0.36 514.81 C-0.36 512.59 -0.36 510.38 -0.37 508.16 C-0.38 502.06 -0.36 495.97 -0.35 489.87 C-0.34 483.98 -0.34 478.08 -0.34 472.18 C-0.35 460.12 -0.34 448.06 -0.32 435.99 C-0.3 424.05 -0.29 412.11 -0.28 400.17 C-0.28 399.42 -0.28 398.68 -0.28 397.92 C-0.28 394.14 -0.28 390.37 -0.28 386.6 C-0.27 359.89 -0.25 333.18 -0.23 306.47 C-0.2 280.52 -0.18 254.57 -0.16 228.62 C-0.16 227.82 -0.16 227.02 -0.16 226.2 C-0.16 218.16 -0.16 210.13 -0.15 202.1 C-0.14 185.73 -0.14 169.37 -0.13 153.01 C-0.13 152.25 -0.13 151.5 -0.13 150.73 C-0.1 100.48 -0.05 50.24 0 0 Z " fill="#343536" transform="translate(0,712)"/>
    <path d="M0 0 C0.79 -0.03 1.58 -0.06 2.39 -0.09 C7.79 -0.15 10.88 0.67 15.12 4.31 C16.12 6.31 17.12 8.31 18.12 10.31 C20.85 13.13 23.7 15.62 27.24 17.34 C29.96 18.75 30.78 20.62 32.12 23.31 C33.18 26.65 33.32 29.82 33.38 33.31 C33.4 34.34 33.43 35.38 33.45 36.44 C33.08 39.71 32.16 40.8 30.12 43.31 C29.6 45.39 29.6 45.39 29.38 47.56 C28.07 54.03 24.24 58.18 18.88 61.85 C10.22 66.85 2.12 68.49 -7.88 67.31 C-10.83 65.98 -12.44 64.54 -14.88 62.31 C-15.6 62.02 -16.32 61.74 -17.06 61.44 C-19.62 59.85 -20.38 57.53 -21.73 54.93 C-23.55 52.35 -25.9 51.97 -28.88 51.31 C-30.58 49.61 -30.49 47.26 -30.88 44.94 C-31.38 41.93 -31.91 39.21 -32.88 36.31 C-32.7 33.56 -32.36 30.84 -32.03 28.1 C-31.75 25.32 -31.75 25.32 -32.47 22.7 C-33.1 19.01 -31.49 17.34 -29.46 14.37 C-21.44 3.95 -12.91 0.16 0 0 Z " fill="#343536" transform="translate(40.875,328.6875)"/>
    <path d="M0 0 C3.22 2.14 6.25 4.51 8 8 C8.58 15.05 8.58 15.05 6.25 18.88 C2.35 22.56 -0.46 23.51 -5.96 23.39 C-9.62 22.69 -11.44 20.62 -14 18 C-15.75 14.49 -15.69 10.82 -15 7 C-11.39 1.47 -6.62 -0.89 0 0 Z " fill="#343536" transform="translate(330,849)"/>
    <path d="M0 0 C33.66 0 67.32 0 102 0 C102 0.33 102 0.66 102 1 C68.34 1 34.68 1 0 1 C0 0.67 0 0.34 0 0 Z " fill="#020504" transform="translate(423,1278)"/>
    <path d="M0 0 C27.72 0 55.44 0 84 0 C84 0.33 84 0.66 84 1 C56.28 1 28.56 1 0 1 C0 0.67 0 0.34 0 0 Z " fill="#020504" transform="translate(274,1278)"/>
    <path d="M0 0 C25.41 0 50.82 0 77 0 C77 0.33 77 0.66 77 1 C51.59 1 26.18 1 0 1 C0 0.67 0 0.34 0 0 Z " fill="#020504" transform="translate(196,1278)"/>
    <path d="M0 0 C20.46 0 40.92 0 62 0 C62 0.33 62 0.66 62 1 C41.54 1 21.08 1 0 1 C0 0.67 0 0.34 0 0 Z " fill="#020504" transform="translate(108,1278)"/>
    <path d="M0 0 C2.25 0.12 2.25 0.12 5 1 C7.44 3.75 7.44 3.75 9 7 C8.25 9.88 8.25 9.88 7 12 C4.69 10.85 3.89 9.75 2.38 7.69 C1.71 6.8 1.71 6.8 1.02 5.89 C0 4 0 4 0 0 Z " fill="#313032" transform="translate(4,1253)"/>
    <path d="M0 0 C0.76 0.8 1.53 1.61 2.31 2.44 C4.79 5.17 4.79 5.17 8 6 C8 7.65 8 9.3 8 11 C4.58 10.75 3.69 9.69 1.19 7.19 C-1 4 -1 4 -0.81 1.62 C-0.54 1.09 -0.28 0.55 0 0 Z " fill="#313032" transform="translate(580,10)"/>
    <path d="M0 0 C4.22 0.53 6.54 1.88 9.81 4.56 C10.6 5.2 11.39 5.84 12.21 6.5 C12.8 7 13.39 7.49 14 8 C12 9 12 9 9.25 8.38 C5.36 6.73 3.06 4.91 0 2 C0 1.34 0 0.68 0 0 Z " fill="#313032" transform="translate(565,0)"/>
    <path d="M0 0 C13.2 0 26.4 0 40 0 C40 0.33 40 0.66 40 1 C26.8 1 13.6 1 0 1 C0 0.67 0 0.34 0 0 Z " fill="#020504" transform="translate(361,1278)"/>
    <path d="M0 0 C3.87 1.75 3.87 1.75 5 4 C5.04 6 5.04 8 5 10 C4.34 10 3.68 10 3 10 C2.67 10.66 2.34 11.32 2 12 C0.71 7.88 -0.26 4.33 0 0 Z " fill="#313032" transform="translate(0,1242)"/>
    <path d="M0 0 C11.88 0 23.76 0 36 0 C36 0.33 36 0.66 36 1 C24.12 1 12.24 1 0 1 C0 0.67 0 0.34 0 0 Z " fill="#020504" transform="translate(70,1278)"/>
    <path d="M0 0 C5.28 0 10.56 0 16 0 C16 0.33 16 0.66 16 1 C10.72 1 5.44 1 0 1 C0 0.67 0 0.34 0 0 Z " fill="#020504" transform="translate(404,1278)"/>
    <path d="M0 0 C5.28 0 10.56 0 16 0 C16 0.33 16 0.66 16 1 C10.72 1 5.44 1 0 1 C0 0.67 0 0.34 0 0 Z " fill="#020504" transform="translate(50,1278)"/>
    <path d="M0 0 C4.29 0 8.58 0 13 0 C13 0.33 13 0.66 13 1 C8.71 1 4.42 1 0 1 C0 0.67 0 0.34 0 0 Z " fill="#020504" transform="translate(33,1278)"/>
    <path d="M0 0 C3.63 0 7.26 0 11 0 C11 0.33 11 0.66 11 1 C7.37 1 3.74 1 0 1 C0 0.67 0 0.34 0 0 Z " fill="#020504" transform="translate(531,1278)"/>
    <path d="M0 0 C3.63 0 7.26 0 11 0 C11 0.33 11 0.66 11 1 C7.37 1 3.74 1 0 1 C0 0.67 0 0.34 0 0 Z " fill="#020504" transform="translate(177,1278)"/>
    <path d="M0 0 C2.97 0 5.94 0 9 0 C9 0.33 9 0.66 9 1 C6.03 1 3.06 1 0 1 C0 0.67 0 0.34 0 0 Z " fill="#020504" transform="translate(551,1278)"/>
    <path d="" fill="#313032" transform="translate(0,0)"/>
    <path d="" fill="#313032" transform="translate(0,0)"/>
    <path d="" fill="#020504" transform="translate(0,0)"/>
    <path d="" fill="#313032" transform="translate(0,0)"/>
    <path d="" fill="#313032" transform="translate(0,0)"/>
    <path d="" fill="#313032" transform="translate(0,0)"/>
    <path d="" fill="#313032" transform="translate(0,0)"/>
</svg>
