<svg width="336" height="335" viewBox="0 0 336 335" fill="none" xmlns="http://www.w3.org/2000/svg">
<mask id="path-1-inside-1_3_334" fill="white">
<path d="M0 5.99999C0 2.68628 2.68629 0 6 0H330C333.314 0 336 2.68629 336 6V329C336 332.314 333.314 335 330 335H6C2.68629 335 0 332.314 0 329V5.99999Z"/>
</mask>
<path d="M0 5.99999C0 2.68628 2.68629 0 6 0H330C333.314 0 336 2.68629 336 6V329C336 332.314 333.314 335 330 335H6C2.68629 335 0 332.314 0 329V5.99999Z" fill="#3B3B3B" fill-opacity="0.78"/>
<path d="M0 6C0 1.58172 3.58172 -2 8 -2H328C332.418 -2 336 1.58172 336 6C336 3.79086 333.314 2 330 2H6C2.68629 2 0 3.79086 0 6ZM336 329C336 333.418 332.418 337 328 337H8C3.58172 337 0 333.418 0 329C0 331.209 2.68629 333 6 333H330C333.314 333 336 331.209 336 329ZM0 335V0V335ZM336 0V335V0Z" fill="#FDB623" mask="url(#path-1-inside-1_3_334)"/>
</svg>
