<svg width="40" height="40" viewBox="0 0 86 92" fill="none" xmlns="http://www.w3.org/2000/svg">
    <path d="M41.6667 58V48H36.6667V44.6667H50V48H45V58H41.6667ZM25 69.6667V59.6667H28.3333V43H25V33H35V36.3333H51.6667V33H61.6667V43H58.3333V59.6667H61.6667V69.6667H51.6667V66.3333H35V69.6667H25ZM35 63H51.6667V59.6667H55V43H51.6667V39.6667H35V43H31.6667V59.6667H35V63ZM28.3333 39.6667H31.6667V36.3333H28.3333V39.6667ZM55 39.6667H58.3333V36.3333H55V39.6667ZM55 66.3333H58.3333V63H55V66.3333ZM28.3333 66.3333H31.6667V63H28.3333V66.3333Z" fill="#D9D9D9"/>
</svg>
